HIERARCHY
ROOT Hips
{
	OFFSET -14.64140 90.27770 -84.91600
	CHANNELS 6 Xposition Yposition Zposition Zrotation Xrotation Yrotation
	JOINT Spine
	{
		OFFSET 0.00000 13.20850 -1.60436
		CHANNELS 3 Zrotation Xrotation Yrotation
		JOINT Spine1
		{
			OFFSET 0.00000 8.61716 0.00000
			CHANNELS 3 Zrotation Xrotation Yrotation
			JOINT Spine2
			{
				OFFSET 0.00000 8.61717 0.00000
				CHANNELS 3 Zrotation Xrotation Yrotation
				JOINT Spine3
				{
					OFFSET 0.00000 8.61717 0.00000
					CHANNELS 3 Zrotation Xrotation Yrotation
					JOINT Neck
					{
						OFFSET 0.00000 11.07920 1.10792
						CHANNELS 3 Zrotation Xrotation Yrotation
						JOINT Neck1
						{
							OFFSET 0.00000 7.08032 0.00000
							CHANNELS 3 Zrotation Xrotation Yrotation
							JOINT Head
							{
								OFFSET 0.00000 7.08031 0.00000
								CHANNELS 3 Zrotation Xrotation Yrotation
								End site
								{
									OFFSET 0.00000 0.00000 0.00000
								}
							}
						}
					}
					JOINT RightShoulder
					{
						OFFSET -0.01000 7.91373 5.19711
						CHANNELS 3 Zrotation Xrotation Yrotation
						JOINT RightArm
						{
							OFFSET -18.41580 0.00000 0.00000
							CHANNELS 3 Zrotation Xrotation Yrotation
							JOINT RightForeArm
							{
								OFFSET -29.11090 0.00000 0.00000
								CHANNELS 3 Zrotation Xrotation Yrotation
								JOINT RightHand
								{
									OFFSET -24.65040 0.00000 0.00000
									CHANNELS 3 Zrotation Xrotation Yrotation
									JOINT RightHandThumb1
									{
										OFFSET -5.35114 -0.85590 3.97906
										CHANNELS 3 Zrotation Xrotation Yrotation
										JOINT RightHandThumb2
										{
											OFFSET -4.52789 0.00000 0.00000
											CHANNELS 3 Zrotation Xrotation Yrotation
											JOINT RightHandThumb3
											{
												OFFSET -2.46976 0.00000 0.00000
												CHANNELS 3 Zrotation Xrotation Yrotation
												End site
												{
													OFFSET 0.00000 0.00000 0.00000
												}
											}
										}
									}
									JOINT RightHandIndex1
									{
										OFFSET -14.26970 0.00000 2.88139
										CHANNELS 3 Zrotation Xrotation Yrotation
										JOINT RightHandIndex2
										{
											OFFSET -5.48836 0.00000 0.00000
											CHANNELS 3 Zrotation Xrotation Yrotation
											JOINT RightHandIndex3
											{
												OFFSET -3.01859 0.00000 0.00000
												CHANNELS 3 Zrotation Xrotation Yrotation
												End site
												{
													OFFSET 0.00000 0.00000 0.00000
												}
											}
										}
									}
									JOINT RightHandMiddle1
									{
										OFFSET -14.26970 0.00000 -0.09147
										CHANNELS 3 Zrotation Xrotation Yrotation
										JOINT RightHandMiddle2
										{
											OFFSET -6.17441 0.00000 0.00000
											CHANNELS 3 Zrotation Xrotation Yrotation
											JOINT RightHandMiddle3
											{
												OFFSET -3.56743 0.00000 0.00000
												CHANNELS 3 Zrotation Xrotation Yrotation
												End site
												{
													OFFSET 0.00000 0.00000 0.00000
												}
											}
										}
									}
									JOINT RightHandRing1
									{
										OFFSET -12.69180 0.00000 -3.06433
										CHANNELS 3 Zrotation Xrotation Yrotation
										JOINT RightHandRing2
										{
											OFFSET -5.62556 0.00000 0.00000
											CHANNELS 3 Zrotation Xrotation Yrotation
											JOINT RightHandRing3
											{
												OFFSET -3.56744 0.00000 0.00000
												CHANNELS 3 Zrotation Xrotation Yrotation
												End site
												{
													OFFSET 0.00000 0.00000 0.00000
												}
											}
										}
									}
									JOINT RightHandPinky1
									{
										OFFSET -11.11390 0.00000 -6.03719
										CHANNELS 3 Zrotation Xrotation Yrotation
										JOINT RightHandPinky2
										{
											OFFSET -4.52789 0.00000 0.00000
											CHANNELS 3 Zrotation Xrotation Yrotation
											JOINT RightHandPinky3
											{
												OFFSET -2.46976 0.00000 0.00000
												CHANNELS 3 Zrotation Xrotation Yrotation
												End site
												{
													OFFSET 0.00000 0.00000 0.00000
												}
											}
										}
									}
								}
							}
						}
					}
					JOINT LeftShoulder
					{
						OFFSET 0.01000 7.91373 5.19711
						CHANNELS 3 Zrotation Xrotation Yrotation
						JOINT LeftArm
						{
							OFFSET 18.41580 0.00000 0.00000
							CHANNELS 3 Zrotation Xrotation Yrotation
							JOINT LeftForeArm
							{
								OFFSET 29.11090 0.00000 0.00000
								CHANNELS 3 Zrotation Xrotation Yrotation
								JOINT LeftHand
								{
									OFFSET 24.65040 0.00000 0.00000
									CHANNELS 3 Zrotation Xrotation Yrotation
									JOINT LeftHandThumb1
									{
										OFFSET 5.35114 -0.85590 3.97906
										CHANNELS 3 Zrotation Xrotation Yrotation
										JOINT LeftHandThumb2
										{
											OFFSET 4.52789 0.00000 0.00000
											CHANNELS 3 Zrotation Xrotation Yrotation
											JOINT LeftHandThumb3
											{
												OFFSET 2.46977 0.00000 0.00000
												CHANNELS 3 Zrotation Xrotation Yrotation
												End site
												{
													OFFSET 0.00000 0.00000 0.00000
												}
											}
										}
									}
									JOINT LeftHandIndex1
									{
										OFFSET 14.26970 0.00000 2.88139
										CHANNELS 3 Zrotation Xrotation Yrotation
										JOINT LeftHandIndex2
										{
											OFFSET 5.48836 0.00000 0.00000
											CHANNELS 3 Zrotation Xrotation Yrotation
											JOINT LeftHandIndex3
											{
												OFFSET 3.01859 0.00000 0.00000
												CHANNELS 3 Zrotation Xrotation Yrotation
												End site
												{
													OFFSET 0.00000 0.00000 0.00000
												}
											}
										}
									}
									JOINT LeftHandMiddle1
									{
										OFFSET 14.26970 0.00000 -0.09147
										CHANNELS 3 Zrotation Xrotation Yrotation
										JOINT LeftHandMiddle2
										{
											OFFSET 6.17440 0.00000 0.00000
											CHANNELS 3 Zrotation Xrotation Yrotation
											JOINT LeftHandMiddle3
											{
												OFFSET 3.56744 0.00000 0.00000
												CHANNELS 3 Zrotation Xrotation Yrotation
												End site
												{
													OFFSET 0.00000 0.00000 0.00000
												}
											}
										}
									}
									JOINT LeftHandRing1
									{
										OFFSET 12.69180 0.00000 -3.06433
										CHANNELS 3 Zrotation Xrotation Yrotation
										JOINT LeftHandRing2
										{
											OFFSET 5.62556 0.00000 0.00000
											CHANNELS 3 Zrotation Xrotation Yrotation
											JOINT LeftHandRing3
											{
												OFFSET 3.56744 0.00000 0.00000
												CHANNELS 3 Zrotation Xrotation Yrotation
												End site
												{
													OFFSET 0.00000 0.00000 0.00000
												}
											}
										}
									}
									JOINT LeftHandPinky1
									{
										OFFSET 11.11390 0.00000 -6.03719
										CHANNELS 3 Zrotation Xrotation Yrotation
										JOINT LeftHandPinky2
										{
											OFFSET 4.52789 0.00000 0.00000
											CHANNELS 3 Zrotation Xrotation Yrotation
											JOINT LeftHandPinky3
											{
												OFFSET 2.46976 0.00000 0.00000
												CHANNELS 3 Zrotation Xrotation Yrotation
												End site
												{
													OFFSET 0.00000 0.00000 0.00000
												}
											}
										}
									}
								}
							}
						}
					}
					JOINT pCube4
					{
						OFFSET 0.00000 10.91090 1.10792
						CHANNELS 3 Zrotation Xrotation Yrotation
						End site
						{
							OFFSET 0.00000 0.00000 0.00000
						}
					}
				}
			}
		}
	}
	JOINT RightUpLeg
	{
		OFFSET -9.98441 0.00000 0.00000
		CHANNELS 3 Zrotation Xrotation Yrotation
		JOINT RightLeg
		{
			OFFSET 0.00000 -42.11790 0.00000
			CHANNELS 3 Zrotation Xrotation Yrotation
			JOINT RightFoot
			{
				OFFSET 0.00000 -45.00020 -0.00001
				CHANNELS 3 Zrotation Xrotation Yrotation
				JOINT RightForeFoot
				{
					OFFSET 0.00000 -3.74820 0.00000
					CHANNELS 3 Zrotation Xrotation Yrotation
					JOINT RightToeBase
					{
						OFFSET 0.00000 0.06325 14.43120
						CHANNELS 3 Zrotation Xrotation Yrotation
						End site
						{
							OFFSET 0.00000 0.00000 0.00000
						}
					}
				}
			}
		}
	}
	JOINT LeftUpLeg
	{
		OFFSET 9.98441 0.00000 0.00000
		CHANNELS 3 Zrotation Xrotation Yrotation
		JOINT LeftLeg
		{
			OFFSET 0.00000 -42.11800 0.00000
			CHANNELS 3 Zrotation Xrotation Yrotation
			JOINT LeftFoot
			{
				OFFSET 0.00000 -45.00070 0.00000
				CHANNELS 3 Zrotation Xrotation Yrotation
				JOINT LeftForeFoot
				{
					OFFSET 0.00000 -3.74824 0.00000
					CHANNELS 3 Zrotation Xrotation Yrotation
					JOINT LeftToeBase
					{
						OFFSET 0.00000 0.06325 14.43110
						CHANNELS 3 Zrotation Xrotation Yrotation
						End site
						{
							OFFSET 0.00000 0.00000 0.00000
						}
					}
				}
			}
		}
	}
}
MOTION
Frames: 4
Frame Time: 0.050000
-0.035565607619697265 -0.010425960980454403 -0.009832525698745922 -0.0376101671946842 0.007050092137660786 0.013588018940655401 4.781612435851488 1.9659430945404446 -2.213081368509835 -0.7601385870118887 3.4027544668618455 0.3680311298047857 -0.9396465067885096 -1.598172028050926 2.22524197533866 -1.0100273769865555 -0.8392731394358476 -0.10321048605605901 1.2642694498088505 13.838298261999752 -2.7500970796800464 0.5290991004344957 -0.4619462283773894 -6.707811923593427 1.5756076655488314 -17.37317733134808 -0.6310257282003212 -15.39449744065927 4.695413829046009 -18.830123496994137 80.42145957042418 -12.324468407946465 38.98882053188496 3.3590559354130827 4.9067209629561725 103.60629089169068 19.971156887005026 -0.9434470933819411 -5.691003572719994 4.530026762617107 -0.1421983331816823 -1.543725727681396 -0.032001328341810194 0.018091132712859278 -56.283482415329814 -0.01473666852243507 0.006732878525788846 -56.20132026346674 -38.763720802642084 0.04283929296527779 0.02366690424924548 -0.025201979020191816 -0.010466116887354862 -0.01984079633349908 0.02808240433416328 0.02314107689258841 0.019867444808471187 -36.65683211141838 -0.038145423427731445 0.03481712809822341 -0.031517811923570324 0.0030657830013688745 -0.04523222870743462 -0.04987861880651459 -0.04682692468617245 -0.029508620643137043 -19.777383486835543 0.0009947744622036533 0.036637290654704585 0.040608167808279486 0.0091782589404959 -0.031906241225586364 -0.006719420220294721 -0.006743056569291729 -0.04331938367664339 24.05190454927268 0.03380613310684412 0.008260644446015441 28.854238559694693 0.046687715857917554 -0.009816464729576889 28.82708317872165 0.023021676214045973 0.003645630525584427 10.643849880658719 2.480391305969042 14.777507338774353 -73.06459308694748 20.458932141114758 -11.506356381528514 -28.562222522106268 10.305115611912056 -86.40431433405408 -29.911825992081486 -11.512642141479667 9.196507673405444 -0.43935605298575064 0.10582148238307837 -8.11803304392094 -0.021749397819243725 0.007637415065841487 44.58345863194375 -0.0468647944878774 -0.006083660307805754 44.544363061833934 12.448143012674361 0.028947224364417188 0.045241197354979265 0.04038293568569966 -0.02969335992456925 -0.011334859931872334 -0.0285348728984461 0.006063760866970602 0.03336056671877788 11.128279241850823 -0.03817898336769661 0.027294796615391758 0.003775498323082306 0.02264667024349903 -0.006366784498690011 0.034527842623622566 0.0026979180160112 -0.03121999187677399 4.742770257790994 -0.02073039646019859 0.011455652458386024 -0.04498390857329714 0.04962505579584589 0.04329502063303155 -0.03659407180441856 0.03661351017512744 0.022131671116469805 -5.595556948702585 0.0074879547306602135 -0.015449026219229302 -6.707868806529182 0.025340864389526468 -0.036047825370462576 -6.699730619408772 0.04088744638641218 -0.042122744016476005 0.045028553343953254 0.0046390250626270986 -0.04199066669431491 8.027911003545464 3.52041227929606 -19.241191637144055 0.023620513824089376 10.412973836442921 0.015399889530429025 -5.574994675283039 -15.673050996600026 3.2046859992512764 -0.010565632542890044 0.012823726995588857 0.016589987073787102 -0.017292837893899047 4.6707400790466505 -0.01578688185924268 12.462194352391759 -8.262531119360427 6.922269206347353 -0.043039423687123865 46.37651922655902 0.02536791733004416 -4.313747766996001 -14.729276571196408 -3.825403607379397 -0.038011130627436225 -0.017643268688088486 0.005822766825609894 -0.0016236109492864185 -10.696701010211378 0.031412741118871164 
-0.03360870651955294 -0.004025127130794911 0.02581789630337269 0.034421824331991174 0.015179697032880152 0.037895774798966796 4.62546934232647 2.08632496818268 -2.143644906077672 -0.7175442621347322 3.4322011034597253 0.40156660545414596 -0.8609309281013859 -1.531524797856076 2.0594966517797397 -0.9940627871796098 -0.7915608254428816 -0.07560693679947153 1.1328256250049373 13.635803741980297 -2.7776223930905792 0.5372984497427996 -0.6116232104499836 -6.8338091895447715 1.5650997135191869 -17.416953496144924 -0.6589186529343157 -14.73129341341855 4.5398789431389055 -18.43933708558777 77.63033448509346 -10.897589384447928 37.485913359967974 4.358311085075867 4.537119359734105 102.55413380038274 20.858363404381873 -0.8669460601222334 -6.047650868476546 4.503725185969861 -0.09927170546973704 -1.5516279333517387 -0.01369827987238 -0.02312463043904322 -56.19836564891932 0.033484929873431116 0.032629309834825836 -56.28204977091362 -38.81135240496123 -0.04031173118446423 0.039266047322849204 -0.0038087868618951323 0.016112054279144316 0.014727333621340074 -0.02702821816585193 0.021539692756839753 -0.026724086129524312 -36.74279402197606 -0.03874712497273014 0.03042907365276736 0.01368960861719985 0.04092763984113905 -0.023752839446689867 0.03860989097386614 0.016406739971462254 0.029901658826846266 -19.712298030642 -0.006973325315230351 -0.0436966081894555 -0.02624974991964138 0.037310543481982913 0.008954337102718304 0.048482325360943386 -0.026932136056521064 0.007367337589086204 24.024314384602015 -0.03914014155895287 -0.03442354055493345 28.858760311568833 -0.0033645128715661743 -0.013590472501219367 28.891656953969637 -0.035363759360264334 -0.015240674127795962 10.253964740428076 2.4505288079342993 14.630974191273355 -71.94960640530563 20.780113090975185 -11.708091040422978 -26.917972541841074 8.861370166584521 -87.71544067836162 -29.347543633751535 -11.004261296047767 8.623519914557845 -0.4887763266527829 0.07986350739398067 -8.143042261576735 -0.009957095516738264 -0.013686225340659714 44.5751526138454 0.0058036186092326825 0.0215271582374818 44.597270625261054 12.445209632395485 -0.011697865030829752 -0.02331177689368612 -0.0076492877778255005 -0.000858383741383894 0.036325382508656294 0.02138144280276486 -0.01787438124216565 -0.03674063702224473 11.112687416299263 -0.022024129078565633 -0.011833675099416508 -0.013779244287207322 0.01369762938383042 -0.039900768444210526 0.03263483092323582 -0.00826229801587394 0.04476855777932831 4.728660257161407 -0.03247236947284563 0.020426239845762615 0.01340224289211189 -0.048675438082117536 0.011746821152347356 -0.038820499204608325 -0.038297305512481665 -0.04335753869556088 -5.607258092348633 0.007416799581807265 -0.042575022354400305 -6.7497317193858075 -0.00920104630977105 -0.04115841582938633 -6.676052711445714 -0.044599092249688256 0.022359098485216698 0.02977314063972894 -0.015466565867055077 -0.004937787169858236 8.059040453529775 3.5161241605873097 -19.266681642473095 0.026705305831537383 10.391955664382733 0.0329424410407921 -5.643425714067164 -15.637780684360145 3.2398865432224304 0.03813770961755806 -0.013639613811949216 0.008136892483260511 -0.013802035582927854 4.654515853313268 0.014974269361610691 12.491494564842904 -8.23451130923688 6.912801020747399 -0.044464570344073716 46.40320047813614 0.03416942580589142 -4.33035379227646 -14.719577691516866 -3.8276993667913306 -0.02080041770453848 0.02125617651671289 0.014504377604395187 -0.020686463949941846 -10.72262671945862 -0.02780834122977322 
-0.04901093459294684 0.0018120574686315957 -0.032523065922525164 -0.037122211533262166 0.04773204285556084 -0.04434355630570278 4.401168683472651 2.321379733896506 -2.123678231291887 -0.7267900461067516 3.495176444302393 0.3952548316213019 -0.8990384116682336 -1.4765976620034433 1.9957807167211905 -0.8400302340288767 -0.7362974740789683 -0.17524413143858703 1.1012721644796073 13.169536486026661 -2.752139351284927 0.4382282848723756 -0.6814251861362413 -6.983005318031406 1.4835647043171596 -17.480291445112027 -0.6220916008312831 -13.791404785938651 4.379936541267426 -18.018013373484344 74.7448924091027 -8.403935423782427 35.166120811594226 4.818939693477971 3.737828175318821 101.903206192891 21.492337601998138 -0.8156147370788198 -6.246831056643564 4.555583859934657 -0.10334175840520299 -1.6418010826928213 0.016638043867484558 0.024931054712380538 -56.28069274763007 0.036285339749728564 0.027105651534487442 -56.254178138739825 -38.77378551478199 -0.02101104744933546 -0.022239162078684864 0.010908835221310177 -0.040128230583332224 0.034841403359481694 0.01011313049547255 -0.016536942249885434 0.03658601623833472 -36.662728607295655 0.035654455563678675 -0.03931944335184054 -0.010706977850687025 0.03486972353596392 0.011728057170534911 0.003405295988468011 0.04202511407656387 0.007984391128906814 -19.776664362057442 -0.014758279746148198 0.01974567955017507 0.021867404225102374 -0.009630747622834576 0.007628609298904615 0.01016069383102453 -0.02621007551098852 -0.042424567689845274 24.099169213591423 -0.03382492491237115 -0.018635688562960804 28.83239646006112 0.04610126971763268 -0.004839162725251779 28.823092194763863 0.035691286594287365 -0.041483117531832134 9.67373921203324 2.287432987587964 14.485589624098061 -71.04790063057817 20.780780099557237 -11.66060526694479 -25.546076168663514 7.91625706501327 -88.20579534170037 -28.430612646239524 -10.354090536670054 7.9302270536880455 -0.4271974286230962 0.0524376947599643 -8.117705287984704 0.021504193537253198 0.04721551191256186 44.57433970391501 0.009951087149493271 -0.009243919305224581 44.51835390347457 12.431305553796157 -0.04034298176880434 0.008269156191222576 0.021261992673286732 0.03099892948625339 0.04572543427726909 -0.018205764954551472 0.004546185757208228 -0.02556576801720068 11.114851074278027 0.009541672680598103 -0.04440976291048921 0.03505845801509033 -0.04514727390231564 0.03865257447229697 0.023550440588478962 -0.041020671365103845 0.004933358102591089 4.775666987889101 -0.03952886221188759 0.007917235662067677 0.009824092864613611 0.01583443164265324 0.0015646860909516171 -0.032950778834690046 -0.049330439100464585 -0.04431810106302137 -5.603463463321545 -0.028381181982950563 -0.036141618601399965 -6.7132545840752424 0.004887431611503262 -0.019235129660577412 -6.717209560396815 -0.0454227963056602 0.0017648082846497986 -0.017572930279634087 0.01980187545314313 -0.0028366164724955996 8.052950856043509 3.5108280183468596 -19.241009207594463 0.021447753518408948 10.413295988407578 -0.026696733018110052 -5.621605709642153 -15.617987882456518 3.164090404908651 -0.011414875348520311 -0.041531320610365574 -0.04430346538738803 -0.015969366990802814 4.680852569793187 0.03723035119651545 12.471350794327583 -8.231822776387544 6.8687127392877425 -0.010555699753773209 46.40096461614469 -0.006267472884156187 -4.33450588842409 -14.771397789908416 -3.8700393649989793 0.047596829727990654 -0.002605838165069891 -0.0125228854494788 -0.02108328636566965 -10.732027238035514 -0.0127997819225327 
-0.008128981445741307 -0.02599014450084825 -0.0015619124302010462 -0.03463503128772023 0.03462603638906493 -0.034567043991689195 4.202996124717249 2.5940165005172955 -2.0590160724159965 -0.7110027958455232 3.4800573204507375 0.36581136955128546 -0.867872106010492 -1.3637408390182402 1.9130306704903488 -0.7726928595436129 -0.7453452948964087 -0.19151240306045775 0.9218270889903373 12.66141064083772 -2.646685307567018 0.3578991298367726 -0.8494663039966477 -7.051080120200426 1.3393142347969402 -17.540135051544546 -0.6352147026877132 -12.761449820247911 4.071439947742608 -17.56789883047218 71.51015287939784 -5.447988624399336 32.042225076273866 4.294784094640001 2.5902274841790818 101.41707382514161 22.09704372872467 -0.7358784737310278 -6.290805010066088 4.480130025990176 -0.08060658902977529 -1.611797156329672 0.02878864013080527 0.016355961337289858 -56.25300647494451 0.04847726671732313 -0.01785416320537434 -56.241569477801725 -38.778755326428715 0.03938267751248316 -0.04216949676095721 0.02907338212067782 0.025805649919883804 -0.004044317401969195 0.02536532345299003 -0.024915893807982432 0.0009726708611958317 -36.70176893423296 -0.044793413190342864 -0.001183980416505262 0.006562346523226628 -0.02430520034294294 0.005024713537019198 0.014759040321468459 -0.03695244308826679 -0.0004600041965975726 -19.71782783161219 0.0246321528512024 -0.018765997479236185 -0.003272053920566986 0.008321279011694941 0.011901949602184615 0.017330691727484596 0.015022226255168683 0.0028673998874237136 24.046365966677783 -0.02788317611588848 -0.04017097220334357 28.83033598605354 0.0013677611906088793 0.022425717137860224 28.820698446303812 -0.04299121940451185 -0.04565762011954923 9.194963497215559 2.2888984850089016 14.421435649313398 -70.08004092877466 20.118467269114674 -11.471654573267854 -24.703258483011204 7.183641290746969 -88.74772816120998 -28.086003008217567 -9.869092764529519 7.3207641059277195 -0.4953807270693513 0.08818245484824488 -8.125180706871468 -0.004898058661906063 -0.04335149746694089 44.53606878177617 -0.045581815426428855 -0.028480183183303334 44.56774833880329 12.438529742570863 0.026620607488581624 0.003584876068929917 -0.020928180089283686 0.007842407836916736 0.0035769427374867397 -0.00732105996649219 0.0021338285660553328 0.03661717210507312 11.150865103202584 -0.03448135790349466 0.03135567344764943 0.015838845370138077 -0.02294692369466932 0.01586071724932747 -0.007341322683375788 -0.009045182112871811 -0.0404126885797488 4.731898597575966 -0.011662265387442932 -0.0046257901684133886 0.005869834550310495 -0.019050833074881465 0.0040644937666819226 -0.030773269492584094 0.04919033348908845 -0.019889030158190053 -5.631143198088469 0.024698986617419982 0.008378864044545523 -6.729009750367255 0.02663913388882894 -0.04979268953884458 -6.6854532456687945 -0.017088267057679973 0.03469835221979712 0.029084727572521285 0.0011791245961384228 -0.029576184369893222 8.069805716449714 3.5261806470764987 -19.24838246596973 0.026490101375473033 10.379667466524062 -0.031102996385154288 -5.640032440837083 -15.679082606966363 3.1453247049186057 -0.017542807661480374 0.02989985859298006 0.00930829635321748 0.04619212681973036 4.6910889442658545 0.0035833962390013708 12.46895302746962 -8.19931033903151 6.843682393346666 0.011152873942634802 46.370256575397626 -0.006481549002004466 -4.281737509409197 -14.77702385687715 -3.812040546633571 -0.03187510945041606 -0.019731267680620376 0.005164372052344573 -0.015741455188317034 -10.754137051965625 -0.007654015129507281 
